# AST/ASF file generated using VICON BodyLanguage
# -----------------------------------------------
:version 1.10
:name VICON
:units
  mass 1.0
  length 0.45
  angle deg
:documentation
   .ast/.asf automatically generated from VICON data using
   VICON BodyBuilder and BodyLanguage model FoxedUp or BRILLIANT.MOD
:root
   order TX TY TZ RX RY RZ
   axis XYZ
   position 0 0 0  
   orientation 0 0 0 
:bonedata
  begin
     id 1 
     name lhipjoint
     direction 0.662698 -0.695252 0.27831 
     length 2.53073 
     axis 0 0 0  XYZ
  end
  begin
     id 2 
     name lfemur
     direction 0.34202 -0.939693 0  
     length 7.16147  
     axis 0 0 20  XYZ
    dof rx ry rz
    limits (-160.0 20.0)
           (-70.0 70.0)
           (-60.0 70.0)
  end
  begin
     id 3 
     name ltibia
     direction 0.34202 -0.939693 0   
     length 7.63967   
     axis 0 0 20   XYZ
    dof rx
    limits (-10.0 170.0)
  end
  begin
     id 4 
     name lfoot
     direction 0.0938457 -0.257721 0.961651   
     length 1.89793   
     axis -90 7.62852e-016 20   XYZ
    dof rx rz
    limits (-45.0 90.0)
           (-70.0 20.0)
  end
  begin
     id 5 
     name ltoes
     direction -0.00116841 -0.0030592 0.999995   
     length 0.955649   
     axis -90 7.62852e-016 20   XYZ
    dof rx
    limits (-90.0 20.0)
  end
  begin
     id 6 
     name rhipjoint
     direction -0.649445 -0.705948 0.282592   
     length 2.49238  
     axis 0 0 0  XYZ 
  end
  begin
     id 7 
     name rfemur
     direction -0.34202 -0.939693 0   
     length 6.90728   
     axis 0 0 -20   XYZ
    dof rx ry rz
    limits (-160.0 20.0)
           (-70.0 70.0)
           (-70.0 60.0)
  end
  begin
     id 8 
     name rtibia
     direction -0.34202 -0.939693 0   
     length 7.72868   
     axis 0 0 -20   XYZ
    dof rx
    limits (-10.0 170.0)
 end
 begin
     id 9 
     name rfoot
     direction -0.0920068 -0.252865 0.963117   
     length 1.97476  
     axis -90 -7.62852e-016 -20   XYZ
    dof rx rz
    limits (-45.0 90.0)
           (-20.0 70.0)
  end
  begin
     id 10 
     name rtoes
     direction 0.000391322 0.00230649 0.999997   
     length 0.992641   
     axis -90 -7.62852e-016 -20   XYZ
    dof rx
    limits (-90.0 20.0)
  end
  begin
     id 11 
     name lowerback
     direction -0.00875327 0.998321 -0.0572635   
     length 2.20024   
     axis 0 0 0   XYZ
    dof rx ry rz
    limits (-20.0 45.0)
           (-30.0 30.0)
           (-30.0 30.0)
  end
  begin
     id 12 
     name upperback
     direction 0.00753931 0.999972 -0.000360425   
     length 2.20538   
     axis 0 0 0   XYZ
    dof rx ry rz
    limits (-20.0 45.0)
           (-30.0 30.0)
           (-30.0 30.0)
  end
  begin
     id 13 
     name thorax
     direction 0.0117767 0.999601 0.0256663   
     length 2.21508   
     axis 0 0 0   XYZ
    dof rx ry rz
    limits (-20.0 45.0)
           (-30.0 30.0)
           (-30.0 30.0)
  end
  begin
     id 14 
     name lowerneck
     direction 0.060228 0.994909 0.0807986   
     length 1.7607   
     axis 0 0 0   XYZ
    dof rx ry rz
    limits (-20.0 45.0)
           (-30.0 30.0)
           (-30.0 30.0)
  end
  begin
     id 15 
     name upperneck
     direction -0.0563647 0.959594 -0.275685   
     length 1.75612   
     axis 0 0 0   XYZ
    dof rx ry rz
    limits (-20.0 45.0)
           (-30.0 30.0)
           (-30.0 30.0)
  end
  begin
     id 16
     name head
     direction -0.0161544 0.99458 -0.102714  
     length 1.79288  
     axis 0 0 0   XYZ
    dof rx ry rz
    limits (-20.0 45.0)
           (-30.0 30.0)
           (-30.0 30.0)
  end
  begin
     id 17 
     name lclavicle
     direction 0.93913 0.332189 -0.087669  
     length 3.52087  
     axis 0 0 0   XYZ
    dof ry rz
    limits (-20.0 10.0)
           (0.0 20.0)
  end
  begin
     id 18 
     name lhumerus
     direction 1 -4.48974e-011 -2.70836e-027   
     length 5.35289   
     axis -180 -30 -90   XYZ
    dof rx ry rz
    limits (-60.0 90.0)
           (-90.0 90.0)
           (-90.0 90.0)
  end
  begin
     id 19
     name lradius
     direction 1 -4.48961e-011 -9.76021e-027   
     length 3.27727   
     axis -180 -30 -90   XYZ
    dof rx
    limits (-10.0 170.0)
  end
  begin
     id 20
     name lwrist
     direction 1 -4.49103e-011 -2.23668e-026   
     length 1.63864   
     axis 1.44924e-014 90 90   XYZ
    dof ry
    limits (-180.0 0.0)
 end
  begin
     id 21 
     name lhand
     direction 1 3.0697e-005 0.000161777   
     length 0.54443   
     axis 2.85318e-014 90 90   XYZ
    dof rx rz
    limits (-90.0 90.0)
           (-45.0 45.0)
  end
  begin
     id 22 
     name lfingers
     direction 1 -4.49027e-011 -8.9447e-026   
     length 0.438912   
     axis 5.70628e-014 90 90   XYZ
    dof rx
    limits (0.0 90.0)
  end
  begin
     id 23
     name lthumb
     direction 0.707058 2.6516e-005 0.707156   
     length 0.630274   
     axis -90 45 -3.53137e-014   XYZ
    dof rx rz
    limits (-45.0 45.0)
           (-45.0 45.0)
  end
  begin
     id 24 
     name rclavicle
     direction -0.95274 0.284984 -0.105215   
     length 3.43401  
     axis 0 0 0   XYZ 
    dof ry rz
    limits (-10.0 20.0)
           (-20.0 0.0)
  end
  begin
     id 25 
     name rhumerus
     direction -0.999999 -0.000575019 -0.00106829  
     length 5.52077   
     axis -180 30 90   XYZ
    dof rx ry rz
    limits (-90.0 60.0)
           (-90.0 90.0)
           (-90.0 90.0)
  end
  begin
     id 26 
     name rradius
     direction -1 -4.4879e-011 -6.35415e-027   
     length 3.32364   
     axis -180 30 90   XYZ
    dof rx
    limits (-10.0 170.0)
  end
  begin
     id 27 
     name rwrist
     direction -1 -4.49048e-011 -9.98542e-027   
     length 1.66182   
     axis 6.32482e-015 -90 -90   XYZ
    dof ry
    limits (-180.0 0.0)
  end
  begin
     id 28
     name rhand
     direction -1 -4.48978e-011 -1.99771e-026   
     length 0.732235   
     axis 1.27479e-014 -90 -90   XYZ
    dof rx rz
    limits (-90.0 90.0)
           (-45.0 45.0)
  end
  begin
     id 29
     name rfingers
     direction -1 -4.49144e-011 -3.99245e-026   
     length 0.590347   
     axis 2.5496e-014 -90 -90   XYZ
    dof rx
    limits (0.0 90.0)
  end
  begin
     id 30
     name rthumb
     direction -0.707107 -6.35121e-011 0.707107   
     length 0.847624   
     axis -90 -45 -2.82974e-014   XYZ
    dof rx rz
    limits (-45.0 45.0)
           (-45.0 45.0)
  end
:hierarchy
  begin
    root lhipjoint rhipjoint lowerback
    lhipjoint lfemur
    lfemur ltibia
    ltibia lfoot
    lfoot ltoes
    rhipjoint rfemur
    rfemur rtibia
    rtibia rfoot
    rfoot rtoes
    lowerback upperback
    upperback thorax
    thorax lowerneck lclavicle rclavicle
    lowerneck upperneck
    upperneck head
    lclavicle lhumerus
    lhumerus lradius
    lradius lwrist
    lwrist lhand lthumb
    lhand lfingers
    rclavicle rhumerus
    rhumerus rradius
    rradius rwrist
    rwrist rhand rthumb
    rhand rfingers
  end

#!OML:ASF G:\Work\Work\Patient Classification 1\Elijah\terrain1\Elijah.ASF
:FULLY-SPECIFIED
:DEGREES
1329
root 4.74335 22.5354 -15.042 362.486 23.0568 6.26237
lowerback -0.125332 -5.79825 -11.0766
upperback 2.7194 -7.54757 0.46513
thorax 4.44139 -4.11039 6.24214
lowerneck -11.1403 11.7562 10.6826
upperneck 39.7571 18.6355 -7.28844
head 18.7787 8.34325 -1.51279
rclavicle 9.38264e-014 -2.76311e-014
rhumerus -49.4452 3.28998 -79.8917
rradius 25.1655
rwrist 2.54375
rhand -14.0445 24.683
rfingers 7.12502
rthumb 12.0862 -4.94792
lclavicle 9.38264e-014 -2.76311e-014
lhumerus -38.8011 9.3059 72.4074
lradius 49.2605
lwrist 11.4265
lhand -11.6295 25.3423
lfingers 7.12502
lthumb 14.414 54.8218
rfemur -34.9254 -10.0642 11.1025
rtibia 34.3813
rfoot -18.9103 -14.4292
rtoes -14.3384
lfemur 4.53725 -14.3812 -27.7641
ltibia 32.2079
lfoot -18.2296 -17.2087
ltoes 0.776415
1330
root 4.73039 22.5239 -14.9094 362.427 23.3074 6.44343
lowerback -0.0140902 -5.73303 -11.3325
upperback 2.67837 -7.47159 0.462162
thorax 4.35546 -4.07482 6.40019
lowerneck -10.9652 11.6538 10.7662
upperneck 39.805 18.4439 -7.21189
head 18.7315 8.30096 -1.54663
rclavicle 9.86469e-014 -5.96354e-016
rhumerus -50.0086 3.02301 -79.496
rradius 24.6087
rwrist 3.11521
rhand -14.2786 24.4001
rfingers 7.12502
rthumb 11.8604 -5.24404
lclavicle 9.86469e-014 -5.96354e-016
lhumerus -38.7052 8.6574 72.4607
lradius 50.8073
lwrist 11.5138
lhand -11.4026 26.1049
lfingers 7.12502
lthumb 14.6327 55.5686
rfemur -34.6751 -8.5731 10.0615
rtibia 32.8866
rfoot -19.4084 -16.2274
rtoes -14.1574
lfemur 5.4469 -14.2809 -27.7324
ltibia 31.5098
lfoot -17.9174 -17.4059
ltoes 1.10286
1331
root 4.7194 22.504 -14.7723 362.364 23.5321 6.61367
lowerback 0.137204 -5.65755 -11.4931
upperback 2.59845 -7.39119 0.444845
thorax 4.18819 -4.02784 6.49882
lowerneck -10.7941 11.5324 10.7603
upperneck 39.8054 18.2233 -7.10052
head 18.632 8.23977 -1.55742
rclavicle -1.14947e-013 -2.0276e-014
rhumerus -50.6032 2.75866 -79.0741
rradius 24.0392
rwrist 3.50683
rhand -14.6824 24.6047
rfingers 7.12502
rthumb 11.4711 -5.06147
lclavicle -1.14947e-013 -2.0276e-014
lhumerus -38.629 8.11688 72.446
lradius 52.1443
lwrist 11.5253
lhand -11.5064 26.4366
lfingers 7.12502
lthumb 14.5327 55.9076
rfemur -34.4048 -6.97767 8.95923
rtibia 31.5001
rfoot -20.2713 -18.0066
rtoes -13.5539
lfemur 6.34309 -14.1873 -27.7071
ltibia 30.8643
lfoot -17.5189 -17.7733
ltoes 2.23513
1332
root 4.70761 22.4987 -14.6404 362.322 23.8371 6.7076
lowerback 0.451394 -5.59755 -11.5314
upperback 2.44875 -7.3603 0.469677
thorax 3.85303 -3.99149 6.59297
lowerneck -10.6873 11.4005 10.6963
upperneck 39.852 17.9924 -6.95958
head 18.5632 8.16563 -1.54327
rclavicle -2.49475e-014 9.54166e-015
rhumerus -51.2044 2.44733 -78.5314
rradius 23.3762
rwrist 4.19073
rhand -15.2126 24.8905
rfingers 7.12502
rthumb 10.9597 -4.80341
lclavicle -2.49475e-014 9.54166e-015
lhumerus -38.5274 7.6984 72.3985
lradius 53.4408
lwrist 11.7418
lhand -11.3002 26.4585
lfingers 7.12502
lthumb 14.7313 55.915
rfemur -34.1619 -5.54494 7.9557
rtibia 30.2303
rfoot -21.3116 -19.7497
rtoes -11.4185
lfemur 7.09336 -13.5726 -27.3178
ltibia 30.2039
lfoot -16.8713 -18.7504
ltoes 2.96482
1333
root 4.68895 22.4879 -14.5167 362.199 24.2393 6.68745
lowerback 0.813671 -5.56134 -11.5396
upperback 2.37481 -7.3649 0.547555
thorax 3.58259 -3.9796 6.72345
lowerneck -10.5155 11.2598 10.728
upperneck 39.8674 17.7539 -6.89862
head 18.4861 8.09547 -1.58599
rclavicle 4.5149e-014 -1.70955e-014
rhumerus -51.7388 2.05262 -77.9083
rradius 22.6475
rwrist 5.31918
rhand -15.6088 25.2557
rfingers 7.12502
rthumb 10.5775 -4.45816
lclavicle 4.5149e-014 -1.70955e-014
lhumerus -38.3322 7.14275 72.4805
lradius 54.9619
lwrist 11.8253
lhand -11.6313 27.381
lfingers 7.12502
lthumb 14.4122 56.8606
rfemur -33.9575 -4.12513 7.04081
rtibia 29.1416
rfoot -22.4408 -21.673
rtoes -9.79619
lfemur 7.87901 -13.4928 -26.9735
ltibia 29.5934
lfoot -16.3914 -19.2101
ltoes 2.74806
1334
root 4.68411 22.4702 -14.3713 362.089 24.2703 6.73935
lowerback 0.725274 -5.44505 -11.5403
upperback 2.44837 -7.19548 0.585673
thorax 3.68117 -3.90452 6.76347
lowerneck -10.5661 11.1939 10.6671
upperneck 39.9292 17.6191 -6.7692
head 18.4861 8.04905 -1.54386
rclavicle 5.31997e-014 -1.82882e-014
rhumerus -52.0585 1.52807 -77.1073
rradius 22.2575
rwrist 5.45859
rhand -14.5911 25.1065
rfingers 7.12502
rthumb 11.5591 -4.55469
lclavicle 5.31997e-014 -1.82882e-014
lhumerus -38.0763 6.65962 72.5614
lradius 56.577
lwrist 11.9877
lhand -11.9301 27.0358
lfingers 7.12502
lthumb 14.1244 56.5357
rfemur -33.8393 -2.96859 6.2556
rtibia 28.1678
rfoot -23.2299 -23.1827
rtoes -9.84695
lfemur 8.76676 -13.3429 -26.8786
ltibia 29.0175
lfoot -16.0875 -19.3829
ltoes 2.61883
1335
root 4.67398 22.4494 -14.2295 362.071 24.5048 6.8893
lowerback 0.775084 -5.38851 -11.6297
upperback 2.4624 -7.12641 0.634827
thorax 3.67238 -3.87405 6.8741
lowerneck -10.6096 11.1227 10.3853
upperneck 39.9155 17.4605 -6.49736
head 18.3794 7.98151 -1.4096
rclavicle 4.87271e-014 2.50469e-014
rhumerus -52.3641 1.11038 -76.3758
rradius 21.6511
rwrist 5.8543
rhand -14.4249 25.1766
rfingers 7.12502
rthumb 11.7194 -4.4756
lclavicle 4.87271e-014 2.50469e-014
lhumerus -37.8781 6.19886 72.6614
lradius 58.2241
lwrist 11.9953
lhand -12.2241 26.6293
lfingers 7.12502
lthumb 13.841 56.1488
rfemur -33.7255 -2.10931 5.44964
rtibia 27.3399
rfoot -23.8024 -24.536
rtoes -9.70917
lfemur 9.5041 -13.2353 -26.7825
ltibia 28.5644
lfoot -15.7464 -19.6744
ltoes 2.56989
1336
root 4.66231 22.4267 -14.0945 362.004 24.6873 6.9508
lowerback 0.964124 -5.30224 -11.5739
upperback 2.435 -7.03866 0.676555
thorax 3.51608 -3.82088 6.91627
lowerneck -10.4793 10.9912 10.1082
upperneck 39.783 17.1869 -6.20391
head 18.1402 7.88248 -1.30523
rclavicle 9.37518e-014 -3.22031e-014
rhumerus -52.8621 1.03438 -76.0415
rradius 21.0947
rwrist 6.44589
rhand -14.8799 24.6806
rfingers 7.12502
rthumb 11.2806 -4.9961
lclavicle 9.37518e-014 -3.22031e-014
lhumerus -37.7198 5.6628 72.7064
lradius 59.8766
lwrist 12.0974
lhand -12.2987 25.9597
lfingers 7.12502
lthumb 13.7692 55.484
rfemur -33.6966 -1.44052 4.82284
rtibia 26.6663
rfoot -24.3137 -25.3715
rtoes -8.73548
lfemur 10.2376 -13.1046 -26.591
ltibia 28.1569
lfoot -15.406 -19.9205
ltoes 2.49263
1337
root 4.65222 22.4015 -13.9603 361.914 24.7688 7.01048
lowerback 1.2785 -5.17247 -11.4925
upperback 2.33301 -6.91249 0.708112
thorax 3.19698 -3.73591 6.95345
lowerneck -10.5349 10.9295 10.1332
upperneck 39.9626 17.0298 -6.01203
head 18.2135 7.84525 -1.25078
rclavicle 6.70898e-015 2.18663e-014
rhumerus -53.6721 1.05563 -75.7525
rradius 20.7852
rwrist 6.95095
rhand -15.8286 27.5983
rfingers 7.12502
rthumb 10.3655 -2.12625
lclavicle 6.70898e-015 2.18663e-014
lhumerus -37.6101 5.10561 72.7499
lradius 61.5535
lwrist 12.4056
lhand -12.2851 25.3517
lfingers 7.12502
lthumb 13.7822 54.8752
rfemur -33.7501 -0.851698 4.21972
rtibia 26.113
rfoot -24.8984 -25.9339
rtoes -7.35481
lfemur 10.946 -12.8903 -26.4081
ltibia 27.7854
lfoot -15.054 -20.1021
ltoes 2.42808
1338
root 4.64032 22.3738 -13.8186 361.835 24.8614 7.14204
lowerback 1.54353 -5.05027 -11.5537
upperback 2.25308 -6.78918 0.763216
thorax 2.9516 -3.66085 7.08564
lowerneck -10.3985 10.8626 10.1392
upperneck 39.9866 16.887 -5.88417
head 18.1539 7.81562 -1.23335
rclavicle 7.04195e-014 0
rhumerus -54.3226 0.658617 -74.9834
rradius 20.5164
rwrist 7.44392
rhand -14.6298 25.4282
rfingers 7.12502
rthumb 11.5218 -4.23515
lclavicle 7.04195e-014 0
lhumerus -37.6165 4.4655 72.9068
lradius 63.5451
lwrist 12.6549
lhand -12.6242 26.215
lfingers 7.12502
lthumb 13.4555 55.7604
rfemur -33.7531 -0.346519 3.60424
rtibia 25.6168
rfoot -24.4667 -26.6339
rtoes -7.19931
lfemur 11.6691 -12.5758 -26.2433
ltibia 27.4379
lfoot -14.6975 -20.3325
ltoes 1.93727
1339
root 4.63177 22.3463 -13.6697 361.777 25.0494 7.40464
lowerback 1.80825 -4.95998 -11.6859
upperback 2.24133 -6.70427 0.786616
thorax 2.7916 -3.61296 7.21568
lowerneck -10.6187 10.9007 9.9689
upperneck 40.0958 16.8598 -5.56509
head 18.1985 7.8123 -1.05203
rclavicle -6.02815e-014 2.38542e-014
rhumerus -54.692 0.233535 -74.2021
rradius 20.2925
rwrist 7.64675
rhand -13.2165 23.9137
rfingers 7.12502
rthumb 12.8845 -5.66862
lclavicle -6.02815e-014 2.38542e-014
lhumerus -37.6904 3.74318 73.1288
lradius 65.8337
lwrist 12.8015
lhand -13.164 27.9122
lfingers 7.12502
lthumb 12.9351 57.4913
rfemur -33.6015 -0.226791 2.98646
rtibia 25.1806
rfoot -23.9037 -27.0377
rtoes -6.25669
lfemur 12.472 -12.3769 -26.2347
ltibia 27.1442
lfoot -14.2396 -20.6648
ltoes 1.7232
1340
root 4.62489 22.3199 -13.5244 361.776 25.256 7.63118
lowerback 2.09983 -4.87895 -11.7066
upperback 2.20855 -6.63648 0.827268
thorax 2.58572 -3.56785 7.30513
lowerneck -10.8606 10.9312 9.71057
upperneck 40.1984 16.8212 -5.20039
head 18.2243 7.7971 -0.837992
rclavicle -2.1419e-014 -2.06736e-014
rhumerus -55.17 0.13303 -73.7149
rradius 19.566
rwrist 9.16916
rhand -14.7307 24.9511
rfingers 7.12502
rthumb 11.4245 -4.71764
lclavicle -2.1419e-014 -2.06736e-014
lhumerus -37.5499 3.15533 73.3577
lradius 67.8166
lwrist 12.7171
lhand -13.4142 28.585
lfingers 7.12502
lthumb 12.6939 58.1792
rfemur -33.444 -0.0922367 2.34051
rtibia 24.7602
rfoot -23.997 -26.9747
rtoes -2.60269
lfemur 13.1311 -12.2058 -26.1649
ltibia 26.9292
lfoot -13.5678 -21.0877
ltoes 2.58396
1341
root 4.61719 22.2908 -13.381 361.868 25.369 7.8534
lowerback 2.29516 -4.78005 -11.7334
upperback 2.15981 -6.53413 0.89678
thorax 2.41382 -3.50708 7.42133
lowerneck -10.8588 10.8547 9.5334
upperneck 40.1397 16.6731 -5.0432
head 18.1218 7.73822 -0.773501
rclavicle 1.58531e-014 4.77083e-015
rhumerus -55.5683 -0.0978202 -73.0366
rradius 19.3332
rwrist 9.48023
rhand -14.5545 24.519
rfingers 7.12502
rthumb 11.5944 -5.14029
lclavicle 1.58531e-014 4.77083e-015
lhumerus -37.3167 2.64677 73.585
lradius 69.6183
lwrist 12.5361
lhand -13.592 27.8182
lfingers 7.12502
lthumb 12.5225 57.4229
rfemur -33.4196 -0.0212653 1.76777
rtibia 24.3612
rfoot -23.777 -26.7533
rtoes 14.1768
lfemur 13.6214 -11.9291 -26.0422
ltibia 26.7658
lfoot -12.959 -21.3683
ltoes 2.71032
1342
root 4.60614 22.2569 -13.2292 361.926 25.3374 8.02761
lowerback 2.48675 -4.6317 -11.7825
upperback 2.07473 -6.3681 0.97692
thorax 2.19501 -3.41055 7.56547
lowerneck -10.6246 10.7335 9.64074
upperneck 40.0453 16.5085 -5.15657
head 18.0178 7.69017 -0.892865
rclavicle 4.08502e-014 2.38542e-015
rhumerus -56.1604 -0.343279 -72.3968
rradius 19.1263
rwrist 10.2911
rhand -16.6188 29.2653
rfingers 7.12502
rthumb 9.60319 -0.4958
lclavicle 4.08502e-014 2.38542e-015
lhumerus -37.4306 1.97799 73.7817
lradius 71.7607
lwrist 12.5433
lhand -13.4933 27.0517
lfingers 7.12502
lthumb 12.6177 56.6506
rfemur -33.4501 0.221173 1.27841
rtibia 24.0099
rfoot -22.928 -26.6455
rtoes -4.18814
lfemur 14.1131 -11.6349 -25.9345
ltibia 26.6908
lfoot -12.6924 -21.4173
ltoes 1.20941
1343
root 4.5937 22.2235 -13.0714 361.899 25.3376 8.14131
lowerback 2.66771 -4.49252 -11.7905
upperback 2.03434 -6.20981 1.07276
thorax 2.02772 -3.32211 7.69844
lowerneck -10.3747 10.6126 9.69774
upperneck 39.9145 16.3353 -5.2276
head 17.874 7.63781 -0.9885
rclavicle -5.44173e-014 -2.38542e-015
rhumerus -56.6818 -0.446202 -71.9698
rradius 18.9575
rwrist 10.9097
rhand -12.9411 23.2377
rfingers 7.12502
rthumb 13.15 -6.32763
lclavicle -5.44173e-014 -2.38542e-015
lhumerus -37.5462 1.2596 74.0214
lradius 73.9399
lwrist 12.351
lhand -13.6588 27.9051
lfingers 7.12502
lthumb 12.4581 57.5138
rfemur -33.3483 0.434503 0.895406
rtibia 23.7006
rfoot -21.9848 -26.415
rtoes -4.45168
lfemur 14.6569 -11.3529 -25.7698
ltibia 26.7068
lfoot -12.3645 -21.4594
ltoes 0.326657
